<?xml version="1.0" encoding="UTF-8"?>
<svg id="Camada_1" xmlns="http://www.w3.org/2000/svg" version="1.1" viewBox="0 0 160 160">
  <!-- Generator: Adobe Illustrator 30.4.0, SVG Export Plug-In . SVG Version: 2.1.4 Build 226)  -->
  <defs>
    <style>
      .st0 {
        fill: #76aacc;
      }

      .st1 {
        fill: #fff;
      }

      .st2 {
        display: none;
        fill: #93b2c1;
      }

      .st3 {
        fill: #375166;
      }

      .st4 {
        fill: #517999;
      }
    </style>
  </defs>
  <path class="st2" d="M125.87,160H39.78s.7-17.55,34.71-17.55h51.39v17.55"/>
  <path class="st4" d="M97.44,160.39h0s-26.03-.15-66.54-.39c15.81-16.29,27.26-18.47,34.71-17.55,14.77,1.81,31.83,17.95,31.83,17.95Z"/>
  <path class="st0" d="M79.39,4.86C30.43,23.01,6.65,0,6.65,0c0,0,72.74,149.58,72.74,111.36"/>
  <path class="st0" d="M135.86,152.51C92.79,101.68,49.72,50.84,6.65,0,3.62,13.55.34,33.02.08,56.61c-.23,20.41-.52,46.84,7.87,64.08,15.87,32.58,68.45,43.8,127.91,31.83Z"/>
  <path class="st3" d="M138.6,160.39h0s-26.03-.15-66.54-.39c15.81-16.29,27.26-18.47,34.71-17.55,14.77,1.81,31.83,17.95,31.83,17.95Z"/>
  <path class="st4" d="M79.39,4.86c8.38,3.95,30.17,12.65,54.73,4.38C141.36,6.8,147.36,3.38,152.13,0c4.78,21.79,8.92,50.74,7.84,84.78-.95,29.85-5.64,55.36-10.77,75.22-10.68.13-21.36.26-32.04.39-6.07-2.77-22.15-11.15-30.56-29.3,0,0-7.16-15.53-7.21-37.95,0-.21,0-1.26,0-10.04,0-.49,0-9.03,0-9.59"/>
  <polygon class="st3" points="79.39 59.94 73.29 78.93 79.39 93.78 85.48 78.93 79.39 59.94"/>
  <circle class="st1" cx="44.98" cy="63.07" r="35.41"/>
  <circle class="st1" cx="113.79" cy="63.07" r="35.41"/>
  <circle class="st3" cx="113.79" cy="64.03" r="19.59"/>
  <circle class="st3" cx="44.98" cy="64.03" r="19.59"/>
</svg>