<?xml version="1.0" encoding="UTF-8"?><svg xmlns="http://www.w3.org/2000/svg" viewBox="0 0 156.65 157.83"><defs><style>.cls-1{fill:#fff;}.cls-2{fill:#3c566a;}.cls-3{fill:#6286a3;}</style></defs><g id="Camada_8"><path class="cls-2" d="M95.49,142.72l11.26,15.1,11.49-15.04c2.31-3.03,14.51-18.73,13.2-22.5l-16.26-2.22c-3.06-8.85-13.69-8.79-16.69.08l-4.61,13.63c-1.25,3.71-.64,7.95,1.6,10.95Z"/><path class="cls-2" d="M61.16,142.72l-11.26,15.1-11.49-15.04c-2.31-3.03-14.51-18.73-13.2-22.5l16.26-2.22c3.06-8.85,13.69-8.79,16.69.08l4.61,13.63c1.25,3.71.64,7.95-1.6,10.95Z"/></g><g id="Camada_5"><path class="cls-3" d="M78.32,21.21c-19.14,0-31.18-19.37-47.59-21.12C20.83-1.37,11.34,15.05,9.8,18.73c-10.85,25.89-15.59,65.43,1.27,97.03,15.9,29.8,28.47,23.57,67.26,39.75,0-31.83,0-64.74,0-134.3Z"/><path class="cls-2" d="M78.32,21.21c19.14,0,31.18-19.37,47.59-21.12,9.9-1.46,19.4,14.96,20.94,18.63,10.85,25.89,15.59,65.43-1.27,97.03-15.9,29.8-28.47,23.57-67.26,39.75,0-31.83,0-64.74,0-134.3Z"/></g><g id="Camada_9"><polygon class="cls-1" points="78.32 102.04 71.75 90.29 50.49 90.29 67.69 83.03 61.12 71.28 78.32 78.54 95.53 71.28 88.95 83.03 106.16 90.29 84.89 90.29 78.32 102.04"/></g><g id="Camada_3"><circle class="cls-1" cx="46.38" cy="67.88" r="34.16"/><circle class="cls-2" cx="46.38" cy="67.88" r="20.23"/><circle class="cls-1" cx="110.27" cy="67.88" r="34.16"/><circle class="cls-2" cx="110.27" cy="67.88" r="20.23"/><circle class="cls-1" cx="56.41" cy="59.06" r="10.03"/><circle class="cls-1" cx="120.29" cy="57.67" r="10.03"/></g></svg>